<svg id="Layer_1" data-name="Layer 1" xmlns="http://www.w3.org/2000/svg" xmlns:xlink="http://www.w3.org/1999/xlink" width="222" height="222" viewBox="0 0 222 222"><defs><style>.cls-1{fill:none;}.cls-2{fill:#008485;}.cls-3{clip-path:url(#clip-path);}.cls-4,.cls-5{fill:#fff;}.cls-5{fill-rule:evenodd;}</style><clipPath id="clip-path" transform="translate(0)"><rect class="cls-1" x="28.5" y="40.94" width="165" height="140.12"/></clipPath></defs><rect class="cls-2" width="222" height="222"/><g class="cls-3"><g id="Group_9377" data-name="Group 9377"><path id="Path_9729" data-name="Path 9729" class="cls-4" d="M48.49,106H171.24v2.32H48.49Z" transform="translate(0)"/><path id="Path_9730" data-name="Path 9730" class="cls-4" d="M52.22,67.28V65H167.5v2.32Z" transform="translate(0)"/><path id="Path_9731" data-name="Path 9731" class="cls-4" d="M52.22,103.27v-1.93H167.5v1.93Z" transform="translate(0)"/><path id="Path_9732" data-name="Path 9732" class="cls-4" d="M130.35,96.17a22.9,22.9,0,0,1-10.17,2.16q-7.4,0-11.69-3.89t-4.26-10.66q0-6.84,4.1-10.64c2.74-2.54,6.57-3.8,11.52-3.8a46.23,46.23,0,0,1,9.93,1.38V76H127.1l0-.37a8.24,8.24,0,0,0,0-1.11,3.19,3.19,0,0,0-2-2.87,11.37,11.37,0,0,0-5.39-1.07,9.59,9.59,0,0,0-7.8,3.59c-1.94,2.39-2.89,5.58-2.91,9.57s1.13,7.12,3.41,9.39,5.41,3.36,9.49,3.36a19.64,19.64,0,0,0,8.47-2.11v1.79Z" transform="translate(0)"/><path id="Path_9733" data-name="Path 9733" class="cls-4" d="M140.09,98l-6.87-23A17.12,17.12,0,0,0,132,71.5a5.32,5.32,0,0,0-2.37-.3l-.46,0V70h11.52v1.14h-.41a11.45,11.45,0,0,0-2.68.19.82.82,0,0,0-.56.86,12.52,12.52,0,0,0,.62,2.76L142.39,91l7.42-20.68h1.52l7.41,21.25L164.31,75q.54-1.56.93-3.18c0-.42-1.13-.63-3.39-.65h-.39V70h8.85v1.14l-.4,0a7.1,7.1,0,0,0-2.59.36A22,22,0,0,0,166,75l-7.86,23h-1.46l-7.58-21.26L141.59,98Z" transform="translate(0)"/><path id="Path_9734" data-name="Path 9734" class="cls-4" d="M83.16,70,101.5,91.47V74.85c0-1.68-.16-2.68-.51-3s-1.34-.52-3.13-.64l-.39,0V70h10v1.14l-.41,0c-1.76.1-2.81.3-3.13.64s-.46,1.33-.48,3V98h-1.54L82,74.87V92.81c0,1.68.15,2.68.48,3s1.34.51,3.15.63l.39,0v1.16H75.94V96.49l.39,0c1.78-.11,2.82-.32,3.15-.64s.46-1.32.48-3v-18c0-1.69,0-3.46-1.67-3.46s-1.66,1.74-1.66,3.46V86.43a21.75,21.75,0,0,1-.5,5.63,7.56,7.56,0,0,1-2,3.34c-1.87,1.95-4.78,2.92-8.74,2.94q-11.93,0-12-11V74.85c0-1.68-.15-2.68-.5-3s-1.32-.52-3.11-.64l-.41,0V70H62.1v1.14l-.39,0c-1.78.1-2.82.3-3.15.64s-.46,1.31-.48,3V86.67a36.16,36.16,0,0,0,.26,5.6,5.47,5.47,0,0,0,1.31,2.48c1.39,1.57,3.47,2.35,6.29,2.35a9.35,9.35,0,0,0,6.31-2A5.48,5.48,0,0,0,74,92.49a22.67,22.67,0,0,0,.41-5V74.85c0-1.68-.15-2.68-.5-3s-1.35-.52-3.13-.64l-.39,0V70Z" transform="translate(0)"/><path id="Path_9735" data-name="Path 9735" class="cls-5" d="M109.86,49.06,73.65,59.82H69.72l40.14-11.91L150,59.82h-3.93Zm47.8,10.76-47.8-14.24L62.06,59.82H52.62l57.24-17,57.25,17Zm13.18,2.79h-122L45.53,60l64.33-19,64.33,19Z" transform="translate(0)"/><path id="Path_9736" data-name="Path 9736" class="cls-4" d="M164.4,98a3.3,3.3,0,1,1,3.35-3.3A3.31,3.31,0,0,1,164.4,98Zm0-6.17a2.87,2.87,0,1,0,2.91,2.87,2.87,2.87,0,0,0-2.91-2.87Z" transform="translate(0)"/><path id="Path_9737" data-name="Path 9737" class="cls-4" d="M163.23,93h1.53c.61,0,1,.32,1,.84a.76.76,0,0,1-.57.81h0c.38.07.46.34.5.66a1.71,1.71,0,0,0,.19.89h-.48c-.12-.13-.06-.48-.12-.79s-.12-.58-.54-.58h-1.06v1.37h-.44Zm1.33,1.47c.41,0,.75-.1.75-.57a.51.51,0,0,0-.46-.55h-1.19v1.12h.9Z" transform="translate(0)"/><path id="Path_9738" data-name="Path 9738" class="cls-4" d="M56.78,121.14l.06-.06a23.49,23.49,0,0,0,2.37.11c1,0,1.88-.06,2.54-.11l.06.06v.61l-.06.06a3.25,3.25,0,0,0-1.63.27c-.23.2-.3.39-.3,5.22v2.81c0,3.9-2,5.79-6.2,5.79-3.31,0-5.82-1.19-5.82-4.85V127.3c0-4.83-.07-5-.3-5.22a3.27,3.27,0,0,0-1.63-.27l-.07-.06v-.61l.07-.06c1.06,0,2.07.11,3.09.11s2-.06,3.09-.11l.06.06v.61l-.06.06a3.25,3.25,0,0,0-1.63.27c-.24.2-.3.39-.3,5.22v3.42c0,1.75.87,3.69,4.21,3.69,3.13,0,4.42-1.38,4.42-4.17V127.3c0-4.83-.06-5-.29-5.22a3.27,3.27,0,0,0-1.63-.27l-.06-.06v-.61Z" transform="translate(0)"/><path id="Path_9739" data-name="Path 9739" class="cls-4" d="M70.79,124l0,0c.77,0,1.51.08,2.27.08.58,0,1.15,0,1.73-.08l0,0v.48l0,0c-.65,0-1.07.09-1.27.34s-.28,5.41-.28,6.58c0,2,.07,3.43.1,4.37l-.1.08a6.93,6.93,0,0,0-1.5-.26c-1.27-1.35-5.31-6.25-7.76-9.37h0v4.35c0,3.87.05,4,.24,4.19a2.67,2.67,0,0,0,1.31.21l0,.05v.48l0,.05c-.66,0-1.34-.08-2-.08s-1.34.05-2,.08l0-.05v-.48l0-.05a2.63,2.63,0,0,0,1.3-.21c.19-.17.24-.32.24-4.19V129c0-3.86,0-4-.24-4.18a2.51,2.51,0,0,0-1.3-.22l0,0V124l0,0c.63,0,1.24.08,1.88.08A9.17,9.17,0,0,0,64.7,124c.6,1,6.45,8.06,7.72,9.56h0c0-.53-.07-2.3-.07-4.58,0-3.86,0-4-.23-4.18a2.56,2.56,0,0,0-1.31-.21l0,0V124Z" transform="translate(0)"/><path id="Path_9740" data-name="Path 9740" class="cls-4" d="M75.71,124l.05,0c.84,0,1.66.08,2.47.08s1.63,0,2.48-.08l.05,0v.48l-.05,0a2.63,2.63,0,0,0-1.3.22c-.19.17-.24.32-.24,4.18v1.68c0,3.87,0,4,.24,4.18a2.53,2.53,0,0,0,1.3.22l.05.05v.48l-.05.05c-.85,0-1.66-.08-2.48-.08s-1.62.05-2.47.08l-.05-.05v-.48l.05-.05a2.65,2.65,0,0,0,1.3-.22c.19-.16.24-.31.24-4.18V129c0-3.87,0-4-.24-4.18a2.54,2.54,0,0,0-1.3-.22l-.05,0Z" transform="translate(0)"/><path id="Path_9741" data-name="Path 9741" class="cls-4" d="M89.62,124l0,0c.68,0,1.36.08,2,.08s1.1,0,1.62-.08l.05,0v.48l-.05,0c-.65,0-.85.07-1.07.55-1.93,4.25-4.22,9.43-4.61,10.62h-.88c-.12-.88-4.39-10.19-4.66-10.73-.19-.39-.68-.44-1.07-.44l0,0V124l0,0c.71,0,1.42.08,2.13.08s1.61,0,2.41-.08l.05,0v.48l-.05,0c-1.07,0-1.28.09-1.28.35s2.88,7.17,3.43,8.31c1.15-2.65,3.36-7.6,3.36-8.21,0-.31-.15-.45-1.42-.45l0,0V124Z" transform="translate(0)"/><path id="Path_9742" data-name="Path 9742" class="cls-4" d="M93.9,124l.06,0c.84,0,1.66.08,2.47.08,3.14,0,5.29,0,6.39-.08l.1.08c-.09.87-.15,1.75-.2,2.57l0,0h-.49l-.06,0a4.35,4.35,0,0,0-.15-1.52,10.31,10.31,0,0,0-2.88-.26c-.69,0-1.3,0-1.64.06-.08,1.47-.08,2.9-.08,4.33.64,0,1.33,0,2,0,.93,0,1.51-.05,1.61-.23a3.07,3.07,0,0,0,.22-1.16l0,0h.44l0,0c0,.65,0,1.32,0,2,0,.44,0,1.11,0,1.69l0,.05h-.44l0-.05a5,5,0,0,0-.24-1.2c-.09-.21-.64-.29-2.08-.29-.58,0-1,0-1.49,0,0,1.55,0,3.12,0,4.65a31.55,31.55,0,0,0,4.76-.21,4.85,4.85,0,0,0,.44-1.72l0,0h.54l0,0c-.07.71-.15,1.8-.19,2.72l-.13.08c-1.12,0-2.33,0-3.51-.06H96.11a10.07,10.07,0,0,0-1.45.08l0,0v-.31l.06-.09c.56-.25.68-.33.71-.43s.12-.34.12-5.78c0-3.87,0-4-.24-4.19a2.63,2.63,0,0,0-1.3-.21l0,0V124Z" transform="translate(0)"/><path id="Path_9743" data-name="Path 9743" class="cls-4" d="M109,129.35a4.75,4.75,0,0,0,.51,0,2.48,2.48,0,0,0,2.71-2.22,2.64,2.64,0,0,0,0-.28c0-1.42-1.09-2.12-2.7-2.12a5.59,5.59,0,0,0-1.46.2c0,.63-.07,1.66-.07,5.66s.06,4,.24,4.18a2.42,2.42,0,0,0,1.24.22l0,.05v.48l0,.05c-.78,0-1.59-.08-2.41-.08s-1.63.05-2.48.08l-.05-.05v-.48l.05-.05a2.67,2.67,0,0,0,1.31-.22c.18-.16.24-.31.24-4.18V129c0-3.87-.06-4-.24-4.18a2.56,2.56,0,0,0-1.31-.22l-.05,0V124l.05,0c.85,0,1.67.08,2.48.08,1,0,2-.08,3-.08,2.44,0,4.1.47,4.1,2.5a3.41,3.41,0,0,1-2.91,3.27l3.29,4.63c.4.56.61.66,1.12.66l0,.05v.49l0,.05a12.85,12.85,0,0,0-1.29-.09c-.46,0-.9.05-1.35.09-1.33-2-2.85-4.29-4.19-6Z" transform="translate(0)"/><path id="Path_9744" data-name="Path 9744" class="cls-4" d="M117.36,132.6l0,.05a6,6,0,0,0,0,1.12c0,.25.83,1.2,2.73,1.2s3-1,3-2.55c0-3.35-6.66-.4-6.66-5,0-2.28,1.68-3.72,4.53-3.72a7.87,7.87,0,0,1,3.2.69l0,.11a11.37,11.37,0,0,0-.29,2.25l0,0-.54,0,0-.05c0-1,0-1.18-.1-1.3a3.32,3.32,0,0,0-2.39-.83c-1.83,0-2.66,1-2.66,2.2,0,1.5.82,1.76,3.59,2.18,2,.28,3.07,1,3.07,2.71s-1.44,4.12-5.15,4.12a7.42,7.42,0,0,1-3.15-.69l0-.1a15.89,15.89,0,0,0,.18-2.38l0-.05Z" transform="translate(0)"/><path id="Path_9745" data-name="Path 9745" class="cls-4" d="M126.24,124l.05,0c.84,0,1.66.08,2.47.08s1.63,0,2.48-.08l0,0v.48l0,0a2.67,2.67,0,0,0-1.31.22c-.18.17-.24.32-.24,4.18v1.68c0,3.87.06,4,.24,4.18a2.56,2.56,0,0,0,1.31.22l0,.05v.48l0,.05c-.85,0-1.66-.08-2.48-.08s-1.62.05-2.47.08l-.05-.05v-.48l.05-.05a2.65,2.65,0,0,0,1.3-.22c.19-.16.24-.31.24-4.18V129c0-3.87,0-4-.24-4.18a2.54,2.54,0,0,0-1.3-.22l-.05,0Z" transform="translate(0)"/><path id="Path_9746" data-name="Path 9746" class="cls-4" d="M134.56,135.08l.05-.05a2.7,2.7,0,0,0,1.31-.21c.18-.17.23-.32.23-4.18,0-1.2-.06-3-.1-5.72h-1.74c-.88,0-1.2,0-1.32.18s-.14.27-.26,1.54l-.06.06h-.53l0,0A17.66,17.66,0,0,0,132,124l0,0c1.59,0,3.54.09,5.05.09s3.46,0,5-.09l.05,0a17.66,17.66,0,0,0-.1,2.62l-.05,0h-.53l-.06-.06c-.12-1.27-.14-1.41-.26-1.54s-.44-.18-1.32-.18h-1.75c0,2.68-.1,4.52-.1,5.72,0,3.86,0,4,.24,4.18a2.56,2.56,0,0,0,1.31.21l.05.05v.49l-.05.05c-.85,0-1.66-.09-2.48-.09s-1.63.05-2.48.09l-.05-.05v-.49Z" transform="translate(0)"/><path id="Path_9747" data-name="Path 9747" class="cls-4" d="M145.73,135.08l.05-.05a2.65,2.65,0,0,0,1.3-.21c.19-.17.24-.32.24-4.18-3.27-5.53-3.84-5.78-4.67-5.78h-.19l-.05-.05v-.49l.05,0c.35,0,1.81-.24,2.15-.3.92.13,2.17,2.35,4,5.55a51,51,0,0,0,3.22-5.55c.29,0,.56,0,.84,0s.57,0,.8,0l.05,0v.15c-.94.9-4.43,5.85-4.43,6.65,0,3.68.05,3.83.24,4a2.65,2.65,0,0,0,1.3.21l0,.05v.48l0,.05c-.84,0-1.66-.08-2.42-.08s-1.58.05-2.42.08l-.05-.05v-.48Z" transform="translate(0)"/><path id="Path_9748" data-name="Path 9748" class="cls-4" d="M161.94,135.62a3.07,3.07,0,0,1-2.33-.83,3.63,3.63,0,0,1-.78-2.52,7.12,7.12,0,0,1,1.86-4.85,5.61,5.61,0,0,1,4.27-2.1,3.11,3.11,0,0,1,2.38.83,3.51,3.51,0,0,1,.8,2.51,7.13,7.13,0,0,1-1.88,4.87A5.7,5.7,0,0,1,161.94,135.62Zm2.54-9.89c-1,0-2,.71-2.75,2.1a9.41,9.41,0,0,0-1.16,4.7,3.4,3.4,0,0,0,.5,1.91,1.58,1.58,0,0,0,1.36.77c1,0,2-.69,2.78-2a9.09,9.09,0,0,0,1.17-4.61,3.8,3.8,0,0,0-.46-2.09A1.62,1.62,0,0,0,164.48,125.73Z" transform="translate(0)"/><path id="Path_9749" data-name="Path 9749" class="cls-4" d="M170,139.07h-1.57L171,126.19l0-.18h-1.52l.08-.46h1.51l0-.1a9.49,9.49,0,0,1,1.91-3.67,3.7,3.7,0,0,1,2.71-1.06,7,7,0,0,1,1,.08,5.6,5.6,0,0,1,.81.19l-.45,2.19h-.8l.19-.16.09-.59a2.3,2.3,0,0,0,0-.45.75.75,0,0,0-.39-.7,2,2,0,0,0-1-.21,1.67,1.67,0,0,0-1.5.8,9.92,9.92,0,0,0-.91,2.92l-.13.59,0,.18h2.92l-.08.45h-2.93l0,.13Z" transform="translate(0)"/><path id="Path_9750" data-name="Path 9750" class="cls-4" d="M40.13,143.72l.06-.06c1,0,1.88.1,2.83.1.72,0,1.44-.06,2.16-.1l.07.06v.6l-.07.06c-.8,0-1.33.11-1.58.42s-.34,6.77-.34,8.22c0,2.46.08,4.29.12,5.46l-.12.11a8.16,8.16,0,0,0-1.89-.34c-1.58-1.68-6.62-7.81-9.69-11.7h-.05V152c0,4.83.07,5,.3,5.23a3.25,3.25,0,0,0,1.63.27l.07.06v.61l-.07.06c-.83,0-1.67-.1-2.5-.1s-1.67.06-2.49.1l-.07-.06v-.61l.07-.06a3.29,3.29,0,0,0,1.63-.27c.23-.21.29-.4.29-5.23v-2.1c0-4.83-.06-5-.29-5.23a3.27,3.27,0,0,0-1.63-.27l-.07-.06v-.6l.07-.06c.78,0,1.54.1,2.35.1a10.4,10.4,0,0,0,1.58-.1c.76,1.27,8.07,10.08,9.66,12h0c0-.67-.09-2.87-.09-5.72,0-4.83-.07-5-.3-5.23a3.15,3.15,0,0,0-1.63-.27l-.06-.06Z" transform="translate(0)"/><path id="Path_9751" data-name="Path 9751" class="cls-4" d="M51.37,146.32c3.42,0,6.15,1.82,6.15,5.75a6.31,6.31,0,0,1-6.29,6.34h-.29c-4.62,0-6-3.32-6-6.14C44.89,148.54,47.72,146.32,51.37,146.32Zm-.29.81c-2.39,0-4.19,1.78-4.19,4.55,0,3.61,2,5.93,4.53,5.93,2.76,0,4.1-2.27,4.1-5C55.52,148.36,52.93,147.13,51.08,147.13Z" transform="translate(0)"/><path id="Path_9752" data-name="Path 9752" class="cls-4" d="M62.74,151.93l.51,0A2.47,2.47,0,0,0,66,149.75c0-.1,0-.2,0-.29,0-1.42-1.08-2.12-2.7-2.12a5.46,5.46,0,0,0-1.45.2c0,.63-.07,1.66-.07,5.67,0,3.86,0,4,.24,4.18a2.36,2.36,0,0,0,1.23.21l.05.05v.49l-.05,0c-.78,0-1.59-.08-2.4-.08s-1.63.05-2.48.08l-.05,0v-.49l.05-.05a2.63,2.63,0,0,0,1.3-.21c.19-.17.24-.32.24-4.18v-1.69c0-3.86-.05-4-.24-4.18a2.52,2.52,0,0,0-1.3-.21l-.05,0v-.49l.05-.05c.85,0,1.66.09,2.48.09,1,0,2-.09,3-.09,2.44,0,4.1.47,4.1,2.5A3.39,3.39,0,0,1,65,152.31l3.29,4.63c.4.57.61.67,1.12.67l0,0v.48l0,.05c-.39,0-.85-.08-1.29-.08s-.9,0-1.36.08c-1.32-2-2.85-4.28-4.19-6Z" transform="translate(0)"/><path id="Path_9753" data-name="Path 9753" class="cls-4" d="M71.84,157.65l0-.05a2.65,2.65,0,0,0,1.3-.21c.19-.17.24-.32.24-4.18,0-1.2-.07-3-.1-5.72H71.59c-.88,0-1.2,0-1.32.18s-.14.27-.26,1.54l-.06.06h-.53l0,0a17.66,17.66,0,0,0-.1-2.62l0-.05c1.59.05,3.54.09,5.05.09s3.45,0,5-.09l0,.05a17.66,17.66,0,0,0-.09,2.62l-.05,0h-.53l-.07-.06c-.11-1.27-.13-1.41-.25-1.54s-.44-.18-1.32-.18H75.4c0,2.68-.1,4.52-.1,5.72,0,3.86.06,4,.24,4.18a2.56,2.56,0,0,0,1.31.21l.05.05v.49l-.05.05c-.85,0-1.66-.09-2.48-.09s-1.62.05-2.47.09l-.05-.05v-.49Z" transform="translate(0)"/><path id="Path_9754" data-name="Path 9754" class="cls-4" d="M79.74,157.65l.05-.05a2.65,2.65,0,0,0,1.3-.21c.19-.17.24-.32.24-4.18v-1.69c0-3.86,0-4-.24-4.18a2.65,2.65,0,0,0-1.3-.21l-.05,0v-.49l.05,0c.84,0,1.66.08,2.47.08s1.63,0,2.48-.08l.05,0v.49l-.05,0a2.63,2.63,0,0,0-1.3.21c-.19.17-.24.32-.24,4.25l3.15,0,3.15,0c0-3.93,0-4.08-.23-4.25a2.56,2.56,0,0,0-1.31-.21l0,0v-.49l0,0c.84,0,1.66.08,2.48.08s1.62,0,2.47-.08l0,0v.49l0,0a2.7,2.7,0,0,0-1.31.21c-.18.17-.23.32-.23,4.18v1.69c0,3.86,0,4,.23,4.18a2.57,2.57,0,0,0,1.31.21l0,.05v.49l0,.05c-.84,0-1.66-.09-2.47-.09s-1.63.05-2.48.09l0-.05v-.49l0-.05a2.67,2.67,0,0,0,1.31-.21c.18-.17.23-.32.23-4.25v-.68c-1.1,0-2.13,0-3.15,0s-2,0-3.15,0v.68c0,3.93,0,4.08.24,4.25a2.63,2.63,0,0,0,1.3.22l.05,0v.49l-.05.05c-.85,0-1.66-.09-2.48-.09s-1.62.05-2.47.09l-.05-.05Z" transform="translate(0)"/><path id="Path_9755" data-name="Path 9755" class="cls-4" d="M112.21,156.25c-.16.4-.32.8-.46,1.19a11.35,11.35,0,0,1-4.89,1c-4.17,0-8.18-2.49-8.18-7.41,0-4.66,3.2-7.68,8.49-7.68a18.1,18.1,0,0,1,4.91.77l.13.14a10.86,10.86,0,0,0-.4,2.94l-.06.06h-.69l-.06-.06a13.67,13.67,0,0,0-.13-1.56,5.8,5.8,0,0,0-4-1.29c-4,0-5.71,3.08-5.71,6,0,3.79,2.22,6.89,6.77,6.89a7.49,7.49,0,0,0,4-1.13Z" transform="translate(0)"/><path id="Path_9756" data-name="Path 9756" class="cls-4" d="M120.86,157.65l0-.05c1.23,0,1.27-.09,1.27-.26a14.85,14.85,0,0,0-1.14-3h-4.47c-1,2.32-1.07,2.57-1.07,2.79,0,.39.44.41,1.37.46l0,.05v.49l0,.05c-.61,0-1.29-.09-1.94-.09s-1.34.05-2,.09l0-.05v-.49l0-.05c1,0,1.09-.11,1.57-1.11,1.5-3.17,3.25-7.12,4.44-10h.71c3.73,8.66,4.23,9.86,4.69,10.63.18.32.34.42,1.1.44l0,0v.49l0,.05c-.73,0-1.51-.09-2.29-.09s-1.56.05-2.28.09l0-.05Zm-2.06-8.54-1.9,4.45h3.8Z" transform="translate(0)"/><path id="Path_9757" data-name="Path 9757" class="cls-4" d="M130.68,151.93l.51,0a2.47,2.47,0,0,0,2.71-2.21,1.43,1.43,0,0,0,0-.29c0-1.42-1.08-2.12-2.69-2.12a5.46,5.46,0,0,0-1.45.2c0,.63-.07,1.66-.07,5.67,0,3.86.05,4,.24,4.18a2.36,2.36,0,0,0,1.23.21l.05.05v.49l-.05,0c-.78,0-1.59-.08-2.41-.08s-1.62.05-2.47.08l-.05,0v-.49l.05-.05a2.65,2.65,0,0,0,1.3-.21c.19-.17.24-.32.24-4.18v-1.69c0-3.86,0-4-.24-4.18a2.54,2.54,0,0,0-1.3-.21l-.05,0v-.49l.05-.05c.84,0,1.66.09,2.47.09,1,0,2-.09,3-.09,2.45,0,4.1.47,4.1,2.5a3.39,3.39,0,0,1-2.91,3.27l3.29,4.63c.41.57.61.67,1.12.67l0,0v.48l0,.05c-.39,0-.85-.08-1.29-.08s-.9,0-1.35.08c-1.32-2-2.85-4.28-4.19-6Z" transform="translate(0)"/><path id="Path_9758" data-name="Path 9758" class="cls-4" d="M144.61,146.32c3.42,0,6.14,1.82,6.14,5.75a6.3,6.3,0,0,1-6.28,6.34h-.29c-4.63,0-6.05-3.32-6.05-6.14C138.14,148.54,141,146.32,144.61,146.32Zm-.29.81c-2.39,0-4.18,1.78-4.18,4.55,0,3.61,2,5.93,4.52,5.93,2.77,0,4.1-2.27,4.1-5C148.76,148.36,146.17,147.13,144.32,147.13Z" transform="translate(0)"/><path id="Path_9759" data-name="Path 9759" class="cls-4" d="M152,146.59l.05-.05c.84,0,1.66.09,2.47.09s1.63,0,2.48-.09l.05.05v.49l-.05,0a2.67,2.67,0,0,0-1.31.21c-.19.17-.24.32-.24,4.18v1.15c0,1.55,0,3.12,0,4.65.9,0,4.5,0,4.78-.29a5,5,0,0,0,.49-1.77l.05,0h.55l0,0c-.07.77-.15,1.9-.26,2.93-1.18,0-2.42-.05-3.62-.06s-2.32,0-3.32,0a11.92,11.92,0,0,0-1.46.09l-.05,0v-.33l.05,0c.58-.27.7-.35.73-.45s.12-.34.12-5.78c0-3.87,0-4-.24-4.19a2.67,2.67,0,0,0-1.31-.21l-.05,0v-.5Z" transform="translate(0)"/><path id="Path_9760" data-name="Path 9760" class="cls-4" d="M162.32,146.59l.05-.05c.85,0,1.67.09,2.48.09s1.63,0,2.48-.09l0,.05v.49l0,0a2.67,2.67,0,0,0-1.31.21c-.19.17-.24.32-.24,4.18v1.69c0,3.86.05,4,.24,4.18a2.67,2.67,0,0,0,1.31.21l0,.05v.49l0,0c-.85,0-1.66-.08-2.48-.08s-1.63.05-2.48.08l-.05,0v-.49l.05-.05a2.67,2.67,0,0,0,1.31-.21c.18-.17.24-.32.24-4.18v-1.69c0-3.86-.06-4-.24-4.18a2.56,2.56,0,0,0-1.31-.21l-.05,0Z" transform="translate(0)"/><path id="Path_9761" data-name="Path 9761" class="cls-4" d="M177.49,146.59l0-.05c.76,0,1.5.09,2.27.09.58,0,1.15,0,1.73-.09l.05.05v.49l-.05,0c-.65,0-1.07.08-1.28.33S180,152.88,180,154c0,2,.06,3.44.09,4.37l-.09.09a6.55,6.55,0,0,0-1.52-.27c-1.27-1.35-5.29-6.25-7.75-9.36h0v4.35c0,3.86.05,4,.24,4.18a2.54,2.54,0,0,0,1.3.21l.05,0v.49l-.05,0c-.66,0-1.34-.09-2-.09s-1.33,0-2,.09l0,0v-.49l0,0a2.67,2.67,0,0,0,1.31-.21c.18-.17.23-.32.23-4.18v-1.69c0-3.86-.05-4-.23-4.18a2.56,2.56,0,0,0-1.31-.21l0,0v-.49l0,0c.63,0,1.24.09,1.89.09a9,9,0,0,0,1.27-.09c.61,1,6.45,8.07,7.73,9.57h0c0-.54-.07-2.3-.07-4.58,0-3.87-.05-4-.24-4.19a2.61,2.61,0,0,0-1.3-.21l0,0Z" transform="translate(0)"/><path id="Path_9762" data-name="Path 9762" class="cls-4" d="M188.83,157.65l0-.05c1.24,0,1.27-.09,1.27-.26a14.85,14.85,0,0,0-1.14-3h-4.47c-1,2.32-1.07,2.57-1.07,2.79,0,.39.44.41,1.37.46l.06.05v.49l-.06.05c-.6,0-1.28-.09-1.94-.09s-1.34.05-2,.09l0-.05v-.49l0-.05c1,0,1.08-.11,1.56-1.11,1.51-3.17,3.25-7.12,4.44-10h.71c3.73,8.66,4.23,9.86,4.69,10.63.19.32.34.42,1.1.44l.05,0v.49l-.05.05c-.73,0-1.51-.09-2.28-.09s-1.57.05-2.29.09l0-.05Zm-2.05-8.54-1.9,4.45h3.8Z" transform="translate(0)"/><path id="Path_9763" data-name="Path 9763" class="cls-4" d="M64.68,166.29l.07-.06c.84.06,1.69.1,2.53.1.64,0,1.28,0,1.93-.1l.07.06v.6l-.07.06c-1,0-1.25.1-1.57,1.1-.39,1.25-2.81,9.31-3.79,12.85h-1L58.2,169.55c-1.76,3.79-4.53,9.71-5.15,11.35H52l-3.17-12.66c-.28-1.08-.38-1.29-1.57-1.29l-.06-.06v-.6l.06-.06c1,.06,1.93.1,2.9.1s1.78,0,2.67-.1l.06.06v.6l-.06.06c-1.23,0-1.59.19-1.59.67q.85,4.81,2.18,9.53h0c1.74-3.66,4.93-10.43,5.12-11h.68c.24.88,3,7.31,4.47,11h0c2-6.84,2.54-8.93,2.54-9.51s-.59-.68-1.6-.68l-.07-.06v-.61Z" transform="translate(0)"/><path id="Path_9764" data-name="Path 9764" class="cls-4" d="M69.49,169.16l.05,0c.84,0,1.66.09,2.48.09s1.62,0,2.47-.09l.05,0v.49l-.05,0a2.65,2.65,0,0,0-1.3.21c-.19.17-.24.32-.24,4.18v1.69c0,3.86,0,4,.24,4.18a2.65,2.65,0,0,0,1.3.21l.05.05v.49l-.05,0c-.84,0-1.66-.09-2.47-.09s-1.63.05-2.48.09l-.05,0v-.49l.05-.05a2.65,2.65,0,0,0,1.3-.21c.19-.17.24-.32.24-4.18v-1.69c0-3.86,0-4-.24-4.18a2.54,2.54,0,0,0-1.3-.21l-.05,0Z" transform="translate(0)"/><path id="Path_9765" data-name="Path 9765" class="cls-4" d="M75.45,169.16l0,0c.85,0,1.67.09,2.48.09s1.63,0,2.48-.09l.05,0v.49l-.05,0a2.67,2.67,0,0,0-1.31.21c-.18.17-.23.32-.23,4.18v1.15c0,1.55,0,3.12,0,4.65.9,0,4.51,0,4.78-.29a5.27,5.27,0,0,0,.5-1.77l0-.05h.53l0,.05c-.06.77-.15,1.9-.25,2.93-1.19,0-2.42,0-3.63-.06s-2.32,0-3.31,0a11.8,11.8,0,0,0-1.46.09l0-.05v-.34l0,0c.58-.26.69-.35.73-.44s.12-.34.12-5.79c0-3.86,0-4-.24-4.18a2.54,2.54,0,0,0-1.3-.21l0-.05v-.5Z" transform="translate(0)"/><path id="Path_9766" data-name="Path 9766" class="cls-4" d="M85.81,169.16l0,0c.84,0,1.25.09,2,.09a13.72,13.72,0,0,0,1.43-.09c1.57,3.4,3.74,7.57,4.45,9,1.55-3,3-6,4.51-9,.46,0,1.07.09,1.56.09s1.19,0,1.66-.09l.05,0v.49l-.05,0a2.65,2.65,0,0,0-1.3.21c-.19.17-.24.32-.24,4.18v1.69c0,3.86,0,4,.24,4.18a2.65,2.65,0,0,0,1.3.21l.05.05v.49l-.05,0c-.84,0-1.66-.09-2.47-.09s-1.63.05-2.48.09l-.05,0v-.49l.05-.05a2.67,2.67,0,0,0,1.31-.21c.18-.17.23-.32.23-4.18v-4.1h0c-1.63,3.08-4.29,8.16-4.66,9.29H93c-.46-1.33-3.81-7.59-4.66-9.29h0v4.09c0,3.87.05,4,.24,4.19a2.55,2.55,0,0,0,1.25.21l0,.05v.48l0,.05c-.63,0-1.27-.08-1.9-.08s-1.37.05-2,.08l0-.05v-.48l0-.05a2.67,2.67,0,0,0,1.31-.21c.18-.17.23-.32.23-4.19v-1.68c0-3.86-.05-4-.23-4.18a2.56,2.56,0,0,0-1.31-.22l0-.05v-.48Z" transform="translate(0)"/><path id="Path_9767" data-name="Path 9767" class="cls-4" d="M102.43,169.16l0,0c.85,0,1.67.09,2.48.09s1.63,0,2.48-.09l0,0v.49l0,0a2.61,2.61,0,0,0-1.3.21c-.19.17-.24.32-.24,4.18v1.69c0,3.86,0,4,.24,4.18a2.61,2.61,0,0,0,1.3.21l0,.05v.49l0,0c-.85,0-1.67-.09-2.48-.09s-1.63.05-2.48.09l0,0v-.49l0-.05a2.67,2.67,0,0,0,1.31-.21c.18-.17.23-.32.23-4.18v-1.69c0-3.86,0-4-.23-4.18a2.56,2.56,0,0,0-1.31-.21l0,0Z" transform="translate(0)"/><path id="Path_9768" data-name="Path 9768" class="cls-4" d="M117.6,169.16l.05,0c.76,0,1.51.09,2.27.09.57,0,1.15,0,1.72-.09l.06,0v.49l-.06,0c-.64,0-1.06.08-1.27.33s-.27,5.41-.27,6.58c0,2,.07,3.44.1,4.37l-.1.09a6.38,6.38,0,0,0-1.51-.27c-1.27-1.35-5.3-6.25-7.75-9.36h0v4.35c0,3.86,0,4,.24,4.18a2.63,2.63,0,0,0,1.3.21l0,0v.49l0,.05c-.66,0-1.34-.09-2-.09s-1.34,0-2,.09l0-.05v-.49l0,0a2.63,2.63,0,0,0,1.3-.21c.19-.17.24-.32.24-4.18V174.1c0-3.86,0-4-.24-4.18a2.5,2.5,0,0,0-1.3-.21l0-.05v-.49l0,0c.63,0,1.24.09,1.88.09a9.18,9.18,0,0,0,1.28-.09c.6,1,6.45,8.07,7.72,9.57h0c0-.53-.07-2.3-.07-4.58,0-3.86,0-4-.24-4.18a2.67,2.67,0,0,0-1.31-.22l0-.05v-.49Z" transform="translate(0)"/><path id="Path_9769" data-name="Path 9769" class="cls-4" d="M130.92,176.05,131,176c.25,0,1.37.06,2.22.06.6,0,1.76-.05,2-.06l.05.05v.34l0,.07a2.12,2.12,0,0,0-.63.38c-.07.09-.12.35-.12,1.5a14.92,14.92,0,0,0,.1,1.65l-.06.1a17.34,17.34,0,0,1-5.05.88c-4.27,0-6.65-2.5-6.65-6,0-4,3.26-6.05,6.8-6.05a14.28,14.28,0,0,1,4.81.75l.05.12a11.46,11.46,0,0,0-.39,2.33l0,0h-.44l-.05,0a4.63,4.63,0,0,0-.22-1.38,6.39,6.39,0,0,0-3.53-1c-3.24,0-4.91,2-4.91,5,0,3.31,2.13,5.45,5,5.45a8.35,8.35,0,0,0,2.66-.45c.05-.63.06-1.28.06-1.58,0-1.05,0-1.2-.13-1.27a5.85,5.85,0,0,0-1.49-.23l-.05-.05v-.48Z" transform="translate(0)"/><path id="Path_9770" data-name="Path 9770" class="cls-4" d="M138.68,180.23l0,0A2.65,2.65,0,0,0,140,180c.19-.17.24-.32.24-4.18,0-1.2-.07-3-.1-5.72h-1.74c-.89,0-1.21,0-1.33.18s-.13.27-.25,1.54l-.07.06h-.52l0-.05a18.93,18.93,0,0,0-.1-2.61l0,0c1.59,0,3.54.08,5,.08s3.46,0,5.05-.08l.05,0a17.48,17.48,0,0,0-.1,2.61l0,.05h-.52l-.07-.06c-.12-1.27-.14-1.4-.25-1.54s-.44-.18-1.33-.18h-1.75c0,2.68-.09,4.52-.09,5.72,0,3.86.05,4,.23,4.18a2.56,2.56,0,0,0,1.31.22l0,0v.48l0,0c-.85,0-1.67-.08-2.48-.08s-1.63,0-2.48.08l-.05,0v-.48Z" transform="translate(0)"/><path id="Path_9771" data-name="Path 9771" class="cls-4" d="M153.45,168.9c3.43,0,6.15,1.82,6.15,5.74a6.33,6.33,0,0,1-6.29,6.35H153c-4.62,0-6.05-3.31-6.05-6.13C147,171.11,149.82,168.9,153.45,168.9Zm-.28.79c-2.39,0-4.19,1.78-4.19,4.55,0,3.61,2,5.93,4.53,5.93,2.76,0,4.1-2.27,4.1-5,0-4.28-2.59-5.51-4.44-5.51Z" transform="translate(0)"/><path id="Path_9772" data-name="Path 9772" class="cls-4" d="M169,169.16l0,0c.76,0,1.51.09,2.27.09.58,0,1.16,0,1.73-.09l.05,0v.49l-.05,0c-.64,0-1.07.08-1.27.33s-.27,5.41-.27,6.58c0,2,.07,3.44.1,4.37l-.1.09a6.47,6.47,0,0,0-1.51-.27c-1.27-1.35-5.3-6.25-7.76-9.36h0v4.35c0,3.86.05,4,.24,4.18a2.5,2.5,0,0,0,1.3.21l0,0v.49l0,.05c-.66,0-1.34-.09-2-.09s-1.34,0-2,.09l-.05-.05v-.49l.05,0a2.67,2.67,0,0,0,1.31-.21c.19-.17.24-.32.24-4.18V174.1c0-3.86,0-4-.24-4.18a2.67,2.67,0,0,0-1.31-.21l-.05-.05v-.49l.05,0c.63,0,1.24.09,1.88.09a8.93,8.93,0,0,0,1.27-.09c.61,1,6.46,8.07,7.73,9.57h0c0-.53-.06-2.3-.06-4.58,0-3.86-.06-4-.24-4.18a2.67,2.67,0,0,0-1.31-.22l0-.05Z" transform="translate(0)"/></g></g></svg>